<?xml version="1.0" encoding="UTF-8" standalone="no"?>
<!-- Created with Inkscape (http://www.inkscape.org/) -->

<svg
   xmlns:dc="http://purl.org/dc/elements/1.1/"
   xmlns:cc="http://creativecommons.org/ns#"
   xmlns:rdf="http://www.w3.org/1999/02/22-rdf-syntax-ns#"
   xmlns:svg="http://www.w3.org/2000/svg"
   xmlns="http://www.w3.org/2000/svg"
   xmlns:sodipodi="http://sodipodi.sourceforge.net/DTD/sodipodi-0.dtd"
   xmlns:inkscape="http://www.inkscape.org/namespaces/inkscape"
   id="svg2"
   version="1.1"
   inkscape:version="0.48.4 r9939"
   width="1607"
   height="1487"
   sodipodi:docname="Maig_Isotip_Negre.eps">
  <metadata
     id="metadata8">
    <rdf:RDF>
      <cc:Work
         rdf:about="">
        <dc:format>image/svg+xml</dc:format>
        <dc:type
           rdf:resource="http://purl.org/dc/dcmitype/StillImage" />
        <dc:title></dc:title>
      </cc:Work>
    </rdf:RDF>
  </metadata>
  <defs
     id="defs6" />
  <sodipodi:namedview
     pagecolor="#ffffff"
     bordercolor="#666666"
     borderopacity="1"
     objecttolerance="10"
     gridtolerance="10"
     guidetolerance="10"
     inkscape:pageopacity="0"
     inkscape:pageshadow="2"
     inkscape:window-width="1366"
     inkscape:window-height="706"
     id="namedview4"
     showgrid="false"
     inkscape:zoom="0.15870881"
     inkscape:cx="803.5"
     inkscape:cy="743.5"
     inkscape:window-x="-8"
     inkscape:window-y="-8"
     inkscape:window-maximized="1"
     inkscape:current-layer="svg2" />
  <path
     style="fill:#ffffff"
     d="m 1053.1735,1362.7828 c -4.1034,-8.629 -7.9128,-28.0331 -10.2641,-52.2828 -0.5332,-5.5 -1.4026,-12.7 -1.9319,-16 -0.5293,-3.3 -0.9719,-8.7 -0.9836,-12 -0.023,-6.5893 -0.7835,-10.5 -2.0411,-10.5 -0.4476,0 -2.4396,5.0625 -4.4267,11.25 -5.1894,16.1596 -11.3899,28.4479 -16.9319,33.5564 l -4.5495,4.1936 -11.2945,0 c -11.17843,0 -11.33354,-0.032 -15.09202,-3.1302 -2.08863,-1.7217 -4.87522,-4.8375 -6.19243,-6.9241 -2.33694,-3.7019 -2.53262,-3.7905 -8.08224,-3.6606 -5.58672,0.1308 -5.74767,0.2171 -9.09875,4.8816 -5.43746,7.5686 -8.2898,8.834 -19.90279,8.8296 -7.96427,0 -10.49019,-0.3746 -13.01614,-1.9149 -5.40506,-3.2958 -8.67552,-8.834 -12.96043,-21.9471 -2.25203,-6.8919 -4.55291,-12.6835 -5.11307,-12.8702 -0.56015,-0.1867 -1.57947,1.14 -2.26515,2.9482 -6.45404,17.0203 -11.98947,26.5748 -17.2569,29.7863 -2.67112,1.6286 -5.04468,1.9946 -12.95518,1.9977 -5.3267,0 -10.85643,-0.4417 -12.28831,-0.9861 -3.01691,-1.147 -6.77155,-4.9342 -10.14858,-10.2364 -2.14178,-3.3628 -2.62408,-3.6308 -4.94512,-2.7484 -1.41454,0.5378 -3.55316,0.7477 -4.75249,0.4663 -2.64016,-0.6194 -3.35472,-0.1197 -7.16106,5.0083 -5.46647,7.3645 -5.64753,7.4335 -19.51954,7.4335 -13.62022,0 -13.6797,-0.021 -19.20894,-6.7114 -3.14006,-3.7996 -8.5432,-19.8546 -11.85361,-35.2221 -2.12152,-9.8485 -3.275,-12.9958 -4.36383,-11.907 -0.25284,0.2529 -0.95308,6.5229 -1.55609,13.9334 -1.20089,14.758 -3.55377,29.8616 -5.22243,33.524 -0.5863,1.2867 -1.71752,2.5896 -2.51381,2.8952 -3.21424,1.2334 -17.97108,1.7908 -19.9119,0.7521 -1.09874,-0.588 -4.17213,-4.9434 -6.82975,-9.6786 -5.29184,-9.4287 -7.03253,-10.3051 -9.47011,-4.7683 -1.87065,4.2491 -4.99972,4.3302 -7.44357,0.1931 -0.9929,-1.6808 -2.46169,-2.9183 -3.26399,-2.75 -0.80231,0.1684 -3.1873,4.3429 -5.3,9.2768 -2.11269,4.934 -4.67842,9.4943 -5.70161,10.1341 -1.0232,0.6398 -5.7883,1.4178 -10.58911,1.729 -7.09776,0.4601 -9.01915,0.2754 -10.2829,-0.9883 -2.00295,-2.003 -5.09565,-8.0818 -6.89165,-13.5459 -4.28809,-13.046 -14.0088,-74.4392 -20.07684,-126.7996 -0.79674,-6.875 -1.91091,-16.325 -2.47594,-21 -1.75514,-14.5219 -5.02365,-50.4228 -6.96476,-76.5 -0.6141,-8.25 -1.55474,-17.7 -2.0903,-21 -0.53556,-3.3 -0.98404,-8.25 -0.99662,-11 -0.0263,-5.7512 -1.37955,-9.0058 -2.40335,-5.7801 -0.92966,2.9291 -0.01,62.0957 1.27133,81.7801 0.60857,9.35 1.78051,29.375 2.60431,44.5 0.8238,15.125 2.00956,36.5 2.63502,47.5 1.72119,30.2708 0.19321,75.2555 -3.15874,92.9951 -2.14141,11.3331 -3.51609,12.4312 -15.61475,12.4731 -8.84094,0.031 -9.25138,-0.068 -11.30725,-2.7182 -3.71144,-4.7843 -7.98173,-11.7043 -8.00061,-12.9648 -0.01,-0.6682 -0.87095,-1.6712 -1.91319,-2.229 -2.10342,-1.1257 -3.38661,-0.1035 -4.52069,3.6014 -1.19044,3.889 -3.73123,3.7624 -7.20026,-0.3587 -1.75874,-2.0894 -3.51476,-3.4863 -3.90225,-3.1042 -0.3875,0.3821 -2.1921,4.1166 -4.01024,8.2989 -5.7033,13.1196 -6.22732,13.4706 -20.14899,13.4954 -5.43483,0.01 -6.41817,-0.2951 -8.1802,-2.5351 -2.72648,-3.4662 -6.56801,-14.2781 -8.51095,-23.9539 -3.93305,-19.5865 -5.22239,-24.8617 -6.145,-25.1415 -0.54254,-0.1645 -2.11143,1.2218 -3.48643,3.0806 -3.73326,5.0468 -5.43678,5.7308 -16.42341,6.5942 -12.22705,0.9608 -14.4499,0.2205 -20.66213,-6.881 l -4.47067,-5.1106 -5.28506,0.6259 c -5.02149,0.5947 -5.44966,0.8804 -8.58606,5.7292 -5.8014,8.9687 -6.4728,9.306 -20.07267,10.0827 l -12,0.6854 -4.18082,-3.6012 c -4.04577,-3.4848 -8.51763,-11.4373 -13.46001,-23.9365 -5.41461,-13.6934 -16.07628,-52.0966 -22.80055,-82.1272 -2.73817,-12.2287 -4.03097,-16.7091 -5.17942,-17.95 -0.48356,-0.5225 -0.87769,-2.3225 -0.87584,-4 0.004,-3.3469 -5.86412,-28.8087 -9.28734,-40.3 -5.1829,-17.3982 -4.88274,-2.563 0.83823,41.4294 1.67044,12.8451 1.51908,17.102 -0.56234,15.8156 -0.56222,-0.3475 -1.67008,-2.1823 -2.46191,-4.0774 -2.36956,-5.6712 -3.88899,-5.3754 -11.82582,2.3019 l -7.20418,6.9687 -8.30078,0.6835 c -4.56543,0.376 -8.69643,0.439 -9.18001,0.1402 -0.48358,-0.2989 -1.13356,-2.8988 -1.4444,-5.7777 -0.31084,-2.8788 -1.23058,-11.0842 -2.04387,-18.2342 -2.34462,-20.6126 -3.45587,-36.8151 -4.1303,-60.2219 -0.45739,-15.8743 -1.03095,-22.7269 -2.11574,-25.2781 -0.81854,-1.925 -1.8745,-6.425 -2.34659,-10 -0.47209,-3.575 -1.57854,-11 -2.45878,-16.5 -0.88024,-5.5 -2.36073,-18.775 -3.28998,-29.5 -0.92925,-10.725 -2.05361,-20.0625 -2.49857,-20.75 -0.44496,-0.6875 -2.32065,-1.25 -4.16821,-1.25 -6.78802,0 -6.52556,0.86294 -6.49568,-21.35699 0.0162,-12.03775 0.79004,-27.98953 1.92318,-39.64301 1.69497,-17.4316 1.73547,-19.67814 0.38182,-21.1794 -1.01658,-1.12743 -1.3504,-2.89544 -1.01568,-5.37924 0.27423,-2.03492 0.0548,-8.25419 -0.4875,-13.8206 -0.64559,-6.62602 -0.64874,-15.9678 -0.009,-27.05375 0.53735,-9.31314 0.75998,-17.49851 0.49475,-18.1897 -0.37833,-0.98591 -6.55164,-1.13863 -28.6484,-0.70872 -40.1475,0.7811 -85.07265,-2.52931 -99.94718,-7.36484 C 208.01381,836.12398 207,834.239 207,823.95181 c 0,-10.05379 0.23539,-10.39004 11.5,-16.42721 3.85,-2.06338 7.3825,-4.10552 7.85,-4.5381 0.83715,-0.77461 -0.42491,-2.19909 -5.35,-6.03852 l -2.5,-1.94892 3.75,-3.09652 c 2.0625,-1.70309 3.75,-3.49119 3.75,-3.97356 0,-0.48237 -3.7125,-2.7178 -8.25,-4.96762 -11.58873,-5.74601 -12.40629,-6.77035 -13.13839,-16.46136 -0.78971,-10.45362 0.545,-12.14277 12.88839,-16.31098 8.11931,-2.74179 48.58136,-8.97101 70,-10.77665 12.38167,-1.0438 16.10455,-3.32597 7.92793,-4.85991 -5.06338,-0.9499 -20.8884,-6.32387 -27.42793,-9.31418 -3.80006,-1.73763 -8.34572,-2.76473 -14.70703,-3.32306 -28.25958,-2.48034 -43.99238,-6.08356 -45.67179,-10.46002 C 207.27953,710.56487 207,706.02674 207,701.37046 c 0,-10.02571 0.61065,-10.86623 11.83776,-16.29413 3.89485,-1.88303 7.31159,-4.02316 7.59276,-4.75585 0.30308,-0.78984 -1.10537,-2.35268 -3.45966,-3.83888 C 220.78689,675.10292 219,673.55346 219,673.03835 c 0,-0.51511 1.575,-2.13788 3.5,-3.60615 1.925,-1.46827 3.49058,-3.17867 3.47908,-3.80089 -0.0115,-0.62222 -3.41453,-2.70631 -7.56227,-4.63131 -4.14774,-1.925 -8.87796,-4.625 -10.51161,-6 -2.7363,-2.30308 -3.00638,-3.12534 -3.42887,-10.43905 -0.53594,-9.27767 0.53977,-11.69313 6.29331,-14.13138 8.90216,-3.77258 16.46755,-5.52025 36.6063,-8.45636 8.14742,-1.18785 17.63822,-3.36657 21.12406,-4.84927 4.04192,-1.71923 12.04804,-4.13369 13.69098,-4.12889 2.36224,0.007 3.31418,-1.94219 1.67734,-3.43437 -0.75257,-0.68607 -4.29332,-2.26826 -7.86832,-3.51597 -9.92492,-3.46392 -17.5883,-7.87441 -22.00209,-12.66281 L 250,589.04469 l 0,-11.17796 c 0,-10.41776 0.17206,-11.40353 2.52998,-14.49493 1.39149,-1.82434 4.51952,-4.68581 6.95118,-6.35884 l 4.42119,-3.04186 -0.54879,-5.23555 c -0.42079,-4.01447 -1.13818,-5.70201 -3.07591,-7.23555 -1.38992,-1.1 -4.271,-3.70645 -6.40239,-5.79211 L 250,531.91579 l 0,-12.11351 c 0,-11.35245 0.15572,-12.31766 2.47859,-15.3631 4.14508,-5.43447 9.64811,-7.95265 32.52141,-14.88171 7.01773,-2.12589 21.50931,-5.48687 35,-8.11742 11.74599,-2.29035 11.99996,-2.47501 12.0002,-8.72523 2.5e-4,-6.78849 3.53759,-28.41727 6.00573,-36.72159 1.93114,-6.49753 6.59812,-14.97996 9.1463,-16.62379 0.74127,-0.47819 12.82277,-0.89646 26.84777,-0.92948 23.32796,-0.0549 25.74707,-0.2222 28.4006,-1.96369 1.63533,-1.07326 5.70473,-2.19388 9.32905,-2.56901 3.53565,-0.36595 6.83642,-1.07333 7.33505,-1.57196 1.71509,-1.71509 1.45705,-65.22346 -0.34469,-84.8353 -0.90952,-9.9 -2.57705,-32.625 -3.70563,-50.5 -1.12858,-17.875 -2.55664,-38.125 -3.17347,-45 -4.02008,-44.80696 -1.72224,-108.17747 4.11408,-113.45927 2.41471,-2.18528 19.83737,-3.21288 22.18728,-1.30861 0.90325,0.73195 3.62206,4.68912 6.0418,8.7937 5.12143,8.68743 7.08691,9.65474 9.22413,4.53965 1.86754,-4.46965 4.66349,-4.67791 7.5918,-0.56547 1.1749,1.65 2.55668,3 3.07061,3 0.51393,0 3.00988,-4.47166 5.54657,-9.93701 2.53668,-5.46536 5.2964,-10.19959 6.1327,-10.52051 3.53887,-1.35799 19.19986,-1.82908 20.65512,-0.62132 1.9571,1.62424 7.4078,14.85707 8.57401,20.81536 0.51279,2.61991 1.87621,9.03848 3.02982,14.26348 3.33572,15.10836 7.42236,37.82402 8.54545,47.5 1.31862,11.36056 3.42451,11.93793 5.47107,1.5 2.18061,-11.12166 8.11487,-27.90687 11.98093,-33.88842 5.28852,-8.18237 7.96065,-9.4238 21.37545,-9.93068 l 10.88172,-0.41117 6.38155,6.7696 c 5.76165,6.112 6.60551,6.66756 8.68702,5.71916 1.26801,-0.57774 3.47932,-0.82605 4.91402,-0.55179 2.2247,0.42528 2.90271,-0.0683 4.60761,-3.35402 2.70695,-5.21696 7.44814,-10.16301 10.30064,-10.74571 1.29014,-0.26354 6.5362,-0.73001 11.65792,-1.03658 10.26768,-0.6146 12.68302,0.0949 17.32777,5.09033 3.35254,3.60563 6.41889,9.70645 9.97146,19.83928 3.91527,11.16732 5.10851,10.79072 9.74679,-3.07615 4.16433,-12.44993 8.92969,-20.05301 14.17632,-22.61816 2.37838,-1.16283 6.62654,-1.79021 13.54263,-2 9.74026,-0.29547 10.20124,-0.21108 13.78777,2.52401 2.04082,1.55633 4.8476,4.63084 6.23728,6.83225 1.91017,3.02589 2.93799,3.82099 4.21224,3.25846 0.92704,-0.40925 3.39877,-0.94598 5.49274,-1.19274 3.14796,-0.37097 4.25194,-1.15316 6.37561,-4.51727 5.84798,-9.26381 8.77083,-10.58395 23.61684,-10.66685 8.54295,-0.0477 11.75281,1.09185 15.59669,5.53706 8.43342,9.75275 20.67964,49.86916 32.63896,106.91939 0.92236,4.4 2.35364,10.025 3.18063,12.5 0.82698,2.475 1.60142,6.075 1.72098,8 0.11956,1.925 0.99773,6.875 1.95149,11 0.95377,4.125 2.40181,10.65 3.21788,14.5 1.32382,6.24546 3.83744,16.39804 5.07548,20.5 0.37674,1.24821 0.62057,1.20102 1.45261,-0.28116 1.09861,-1.95703 -0.17093,-23.12723 -2.68133,-44.71271 C 798.65387,269.1345 798,262.272 798,260.75613 c 0,-4.10349 2.44757,-3.39015 4.26786,1.24387 0.95907,2.44155 2.22159,4 3.24045,4 0.91806,0 4.87404,-2.925 8.79107,-6.5 6.57662,-6.00235 7.46992,-6.5 11.66785,-6.5 2.50029,0 5.94524,-0.4013 7.65545,-0.89179 4.78257,-1.37162 5.65583,-0.1583 6.31186,8.7698 0.32524,4.42634 1.1313,8.58783 1.79125,9.24778 2.33524,2.33524 3.22421,-3.91054 3.22421,-22.65295 0,-10.19066 0.25865,-21.32845 0.57479,-24.75065 0.31613,-3.42221 0.75886,-8.69719 0.98383,-11.72219 2.16511,-29.11172 6.94092,-56.45857 10.92054,-62.53223 1.53898,-2.34878 2.09456,-2.46777 11.52246,-2.46777 7.14154,0 10.29489,0.38936 11.30091,1.39539 0.76747,0.76747 3.30477,5.26747 5.63846,10 2.33368,4.73254 4.84345,8.60461 5.57726,8.60461 0.73381,0 2.26347,-1.575 3.39925,-3.5 2.62016,-4.44085 4.65176,-4.42911 7.28985,0.0421 1.14945,1.94817 2.59678,3.37693 3.21628,3.17502 0.6195,-0.2019 2.64143,-3.25836 4.49316,-6.79212 1.85173,-3.53376 4.46214,-7.88752 5.80089,-9.67502 l 2.4341,-3.25 9.44911,0 c 11.44733,0 12.20337,0.54482 15.41733,11.11011 4.35388,14.31253 8.53634,54.10001 11.02603,104.88989 0.57965,11.825 1.51294,27.55964 2.07397,34.96586 1.12917,14.90629 2.06059,54.66102 2.28513,97.53414 0.0918,17.51701 0.52104,28.1872 1.14665,28.5 0.59131,0.29565 1.26841,-2.36084 1.65674,-6.5 0.36121,-3.85 1.1805,-9.025 1.82064,-11.5 0.72591,-2.80662 1.51003,-21.81006 2.08374,-50.5 2.67504,-133.77268 2.87107,-138.81901 6.52618,-168 2.04233,-16.30514 4.29659,-26.9807 7.0211,-33.25 l 2.28154,-5.25 10.53198,0 c 12.03148,0 10.54818,-1.02535 17.24178,11.91831 2.11,4.08007 4.393,7.60314 5.0734,7.82903 0.6804,0.2259 2.1873,-1.19984 3.3488,-3.16831 2.6547,-4.49937 4.4268,-4.51925 7.0466,-0.079 1.1358,1.925 2.6667,3.5 3.4021,3.5 0.7354,0 2.6959,-2.67399 4.3567,-5.9422 7.5204,-14.79919 6.5584,-14.0578 18.2406,-14.0578 9.1499,0 9.9253,0.15763 11.3313,2.30349 3.9181,5.97971 7.4209,21.45278 9.024,39.86112 0.3671,4.21553 1.3042,8.49053 2.0825,9.5 1.343,1.74185 1.5557,1.67489 4.1727,-1.31374 4.1398,-4.72761 6.1833,-5.35087 17.544,-5.35087 12.0406,0 14.7291,1.19565 20.2368,9 3.1659,4.48601 3.1925,4.49903 8.5763,4.18812 4.0408,-0.23336 5.7781,-0.82507 6.9005,-2.35025 0.825,-1.1211 3.2448,-4.01825 5.3774,-6.43812 l 3.8773,-4.39975 12.4683,0 c 10.9968,0 12.8106,0.24374 15.3688,2.06535 8.7608,6.23823 17.4018,34.19964 26.5566,85.93465 1.4112,7.975 3.6687,20.575 5.0166,28 1.3479,7.425 2.818,16.425 3.2669,20 3.1383,24.99402 8.603,49.68651 10.0509,45.41544 0.3571,-1.05349 0.2105,-11.81544 -0.3258,-23.91544 -1.3574,-30.62428 -1.369,-38.75565 -0.056,-39.19722 0.6056,-0.20365 1.8804,1.66991 2.8327,4.16347 0.9724,2.54631 2.3779,4.53375 3.2063,4.53375 0.8111,0 4.6034,-2.63348 8.4272,-5.85217 l 6.9524,-5.85217 8.74,-0.6296 c 7.0428,-0.50733 8.9532,-0.34529 9.8373,0.83439 1.6106,2.14891 2.643,48.40139 1.8061,80.91284 -0.5837,22.67267 -0.466,27.8062 0.6687,29.17345 1.702,2.05084 2.6175,15.05438 3.514,49.91326 0.3767,14.64985 1.103,26.54568 1.6638,27.25 0.5473,0.6875 2.0946,1.25 3.4384,1.25 1.3438,0 3.3649,0.49322 4.4912,1.09604 1.9349,1.03548 2.0279,1.82277 1.6843,14.25 L 1268.5,525.5 l 41.5,0.64284 c 47.1919,0.73102 56.4986,1.19584 77.5507,3.87325 21.9946,2.79727 31.9118,5.44638 36.1117,9.64626 1.5921,1.5922 1.7708,3.01593 1.3376,10.65922 -0.4215,7.43715 -0.8127,9.00651 -2.4924,10 -1.0959,0.64814 -5.5959,3.13438 -10,5.52498 -4.4042,2.39061 -8.3954,4.71343 -8.8694,5.16182 -0.474,0.44839 0.9885,2.03974 3.25,3.53633 2.2615,1.49659 4.1049,2.99877 4.0965,3.33819 -0.034,1.37779 -1.8505,3.36579 -4.0996,4.48708 -4.4594,2.22324 -2.8407,4.18669 8.1149,9.84326 l 10.5,5.42134 0.283,10.00715 0.2831,10.00714 -2.7831,1.31195 c -9.8308,4.63434 -17.4711,6.51362 -38.783,9.53947 -6.6,0.93706 -12.4447,2.12504 -12.9882,2.63994 -0.6368,0.60329 0.1703,1.84287 2.2698,3.48597 4.0552,3.17363 6.2184,7.24439 6.2184,11.70171 0,4.48511 1.2147,5.31337 9,6.13687 9.4924,1.00406 25.4177,4.24933 29.2121,5.95284 6.5082,2.92191 6.7879,3.47081 6.7879,13.32019 0,6.01917 -0.4156,9.34648 -1.25,10.00733 -1.3668,1.08253 -9.8081,5.76249 -16.4672,9.12966 -4.4142,2.23201 -4.89,4.48032 -1.1963,5.65265 2.234,0.70907 4.9135,3.2054 4.9135,4.57771 0,0.52927 -1.575,1.89157 -3.5,3.02735 -1.925,1.13578 -3.4678,2.8081 -3.4285,3.71628 0.047,1.07683 3.8731,3.52724 11,7.04427 l 10.9285,5.39306 0,9.83662 0,9.83662 -3.75,1.88324 c -7.7507,3.89235 -16.7171,5.98072 -39.25,9.14172 -4.675,0.65582 -9.2875,1.40797 -10.25,1.67144 -2.5348,0.69385 -2.1465,2.84254 0.7523,4.16334 4.9074,2.23599 6.4898,6.61732 6.494,17.98057 0,11.42324 -0.891,14.15849 -5.9564,18.20034 -8.7695,6.99756 -8.5959,6.80396 -7.2899,8.13044 0.6875,0.69826 1.25,2.96187 1.25,5.03025 0,3.39674 0.4717,4.06948 4.8738,6.95136 7.1786,4.6995 7.944,6.55765 8.2578,20.04514 0.2253,9.68884 -0.019,12.02214 -1.4953,14.27507 -2.0904,3.19035 -9.9889,8.44651 -13.9071,9.25461 -1.524,0.3143 -3.013,0.96333 -3.309,1.44229 -0.296,0.47896 -1.2312,0.87084 -2.0781,0.87084 -0.8469,0 -2.9578,0.59813 -4.691,1.32918 -8.4608,3.5689 -31.2099,9.29019 -56.4109,14.1871 -19.8531,3.85774 -38.3989,7.34568 -42.2402,7.9442 -1.925,0.29993 -4.9913,1.45495 -6.8141,2.5667 -2.6484,1.61534 -3.251,2.56887 -3,4.74709 0.3105,2.69472 0.408,2.72903 8.5641,3.01617 4.6116,0.16236 8.25,0.72929 8.25,1.28554 0,0.5473 -2.025,1.86311 -4.5,2.92402 -2.475,1.06091 -4.5,2.4106 -4.5,2.9993 0,0.58871 2.8602,4.5422 6.356,8.78554 l 6.356,7.71516 0.5466,8.2084 c 0.3725,5.59404 0.1795,8.50663 -0.606,9.14475 -0.6339,0.515 -4.7962,1.09642 -9.2495,1.29206 -4.9069,0.21557 -8.7481,0.89623 -9.75,1.72769 -1.443,1.19758 -1.6604,4.18486 -1.7108,23.49954 -0.058,22.37489 -0.8723,37.13084 -2.9029,52.62756 -3.2762,25.0027 -10.0664,47.118 -16.4169,53.4684 -2.3979,2.3979 -3.1049,2.5316 -13.39,2.5316 -10.5404,0 -10.9354,-0.081 -13.4918,-2.75 -1.4484,-1.5125 -3.5573,-4.8392 -4.6864,-7.3928 -2.4636,-5.5712 -4.5713,-6.6596 -7.5242,-3.8855 -2.79,2.6211 -3.6853,2.5564 -6.5301,-0.4717 -1.2917,-1.375 -2.8624,-2.5 -3.4903,-2.5 -0.6279,0 -2.1775,2.4992 -3.4436,5.5538 -1.2661,3.0546 -3.7645,7.1046 -5.5521,9 -3.0723,3.2576 -3.6144,3.4462 -9.9068,3.4462 -5.9933,0 -6.7386,0.2243 -7.4779,2.25 -0.4517,1.2375 -1.3824,9.675 -2.0682,18.75 -0.6858,9.075 -1.5347,17.175 -1.8865,18 -0.3519,0.825 -0.9062,44.925 -1.2319,98 -0.3751,61.132 -0.9973,99.6153 -1.6976,105 -0.608,4.675 -1.6034,13.225 -2.212,19 -1.9659,18.6531 -4.7018,29.7128 -8.3491,33.75 -1.8104,2.0041 -2.9804,2.25 -10.7033,2.25 -10.1809,0 -9.7844,0.2917 -16.3131,-12 -2.4832,-4.675 -5.2059,-8.642 -6.0504,-8.8155 -0.9669,-0.1986 -2.0874,1.0051 -3.0254,3.25 -1.9672,4.7082 -4.723,4.7032 -7.5059,-0.014 -1.1615,-1.9685 -2.6298,-3.4064 -3.2631,-3.1953 -0.6332,0.2111 -3.4399,4.8592 -6.2371,10.3291 l -5.0857,9.9452 -10.6449,0.2828 -10.645,0.2827 -2.0366,-4.2827 z M 680.24775,806.35816 680.5,587.71632 l 27,27.90146 c 14.85,15.3458 37.56357,38.92213 50.47461,52.39184 12.91103,13.46971 30.01319,31.24038 38.00481,39.49038 7.99161,8.25 20.3883,21.075 27.54818,28.5 7.15988,7.425 20.28804,21.01533 29.17368,30.20072 l 16.15572,16.70073 45.3215,-46.21148 C 973.99244,675.70147 1041.5645,606.60824 1051.7711,596 l 8.1781,-8.5 0.025,218.75 0.025,218.75 24.5,0 24.5,0 -0.011,-279.75 -0.011,-279.75 -11.7501,12 c -6.4625,6.6 -20.6706,21.5625 -31.5736,33.25 -10.9029,11.6875 -20.1711,21.25 -20.5959,21.25 -0.4248,0 -18.2712,18.1125 -39.6586,40.25 -21.38745,22.1375 -55.36206,57.125 -75.49916,77.75 -20.1371,20.625 -42.05617,43.125 -48.70904,50 l -12.09613,12.5 -11.2665,-11.5 c -20.0985,-20.51505 -38.46,-39.46003 -97.39692,-100.49194 C 689.77982,527.34378 641.16546,477.01517 635.3485,471.01316 L 631,466.52632 631,745.76316 631,1025 l 24.49775,0 24.49776,0 0.25224,-218.64184 z M 468,607.64702 c 0.825,0.002 15.36225,9.58258 32.30501,21.29003 16.94275,11.70745 30.96788,21.12339 31.16695,20.92432 0.19908,-0.19907 -4.1071,-15.43682 -9.56928,-33.86166 -5.46217,-18.42484 -10.3334,-34.94363 -10.82494,-36.70842 l -0.89372,-3.20871 23.15799,-17.75064 c 12.73689,-9.76286 26.40702,-20.23899 30.37806,-23.28029 5.64255,-4.32146 6.84426,-5.66824 5.5,-6.16398 -0.94604,-0.34889 -18.23296,-0.96828 -38.41539,-1.37642 l -36.69532,-0.74207 -1.44283,-4.13459 C 487.88945,508.94528 478.52897,482.53315 476.4936,477 c -1.31506,-3.575 -3.6516,-10.21228 -5.19231,-14.74951 -1.54071,-4.53723 -3.02629,-8.24951 -3.30129,-8.24951 -0.275,0 -1.76058,3.71228 -3.30129,8.24951 -1.54071,4.53723 -3.87376,11.17451 -5.18456,14.74951 -1.3108,3.575 -5.78677,16.13655 -9.94661,27.91456 -4.15983,11.77801 -7.67677,21.51997 -7.81543,21.64881 -0.13866,0.12884 -16.67711,0.56401 -36.75211,0.96706 -20.075,0.40304 -37.27403,1.01603 -38.22007,1.36219 -1.34224,0.49113 -0.1341,1.84404 5.5,6.15903 3.97104,3.0413 17.65064,13.52469 30.39912,23.29641 l 23.17905,17.76678 -1.37691,4.69258 c -0.75729,2.58092 -5.67536,19.2132 -10.92904,36.96062 C 408.29847,635.51546 404,650.22457 404,650.45495 c 0,0.23038 14.0625,-9.308 31.25,-21.19641 17.1875,-11.8884 31.925,-21.61359 32.75,-21.61152 z"
     id="path2989"
     inkscape:connector-curvature="0" />
</svg>
